<svg id="visual" viewBox="0 0 960 540" width="960" height="540" xmlns="http://www.w3.org/2000/svg" xmlns:xlink="http://www.w3.org/1999/xlink" version="1.1"><rect x="0" y="0" width="960" height="540" fill="#002233"></rect><path d="M0 343L26.7 347C53.3 351 106.7 359 160 370.3C213.3 381.7 266.7 396.3 320 398.7C373.3 401 426.7 391 480 396.3C533.3 401.7 586.7 422.3 640 425.5C693.3 428.7 746.7 414.3 800 401.3C853.3 388.3 906.7 376.7 933.3 370.8L960 365L960 541L933.3 541C906.7 541 853.3 541 800 541C746.7 541 693.3 541 640 541C586.7 541 533.3 541 480 541C426.7 541 373.3 541 320 541C266.7 541 213.3 541 160 541C106.7 541 53.3 541 26.7 541L0 541Z" fill="#0066FF" stroke-linecap="round" stroke-linejoin="miter"></path></svg>